<svg width="220" height="49" viewBox="0 0 220 49" fill="none" xmlns="http://www.w3.org/2000/svg">
<path d="M8.11143 12.986V0H0V25.5651L0.00143337 25.6781L0 25.7847C0 33.7206 6.66277 40.1534 14.8803 40.1534C23.0987 40.1534 29.762 33.721 29.762 25.7847C29.762 17.8488 23.0992 11.416 14.8803 11.416C12.4431 11.416 10.1416 11.9821 8.11143 12.986ZM14.8803 17.7842C19.4575 17.7842 23.1661 21.3653 23.1661 25.7851C23.1661 30.2036 19.4575 33.7847 14.8803 33.7847C10.3045 33.7847 6.59588 30.2036 6.59588 25.7851C6.59588 21.3653 10.3045 17.7842 14.8803 17.7842Z" fill="black"/>
<path d="M124.22 12.1758H116.201L110.036 30.8255H109.927L103.543 12.1758H95.2506L105.18 37.7261C105.399 38.2526 105.508 38.8329 105.508 39.4115C105.508 41.4659 104.144 42.8362 102.126 42.8362C100.598 42.8362 99.234 42.731 97.9793 42.5723V48.7356C99.5617 48.8944 101.143 48.9995 102.725 48.9995C108.018 48.9995 110.746 47.209 112.437 42.8362L124.22 12.1758Z" fill="black"/>
<path d="M202.159 3.26784H194.411V11.434H189.72V16.7032H194.411V33.2486C194.411 38.7264 198.503 39.728 203.305 39.728C204.833 39.728 206.524 39.6754 207.834 39.4641V33.6172C207.124 33.7746 206.306 33.8272 205.433 33.8272C202.814 33.8272 202.159 33.1955 202.159 30.6664V16.7032H207.834V11.434H202.159L202.159 3.26784Z" fill="black"/>
<path d="M220 0.000461648H212.253V6.16381H220V0.000461648ZM207.56 48.7901C208.378 48.9474 209.251 49 210.069 49C217.871 49 220 46.3665 220 40.7827V11.4344H212.253V40.4136C212.253 42.4666 210.833 42.8367 209.251 42.8367C208.542 42.8367 207.996 42.7827 207.56 42.6254V48.7901Z" fill="black"/>
<path fill-rule="evenodd" clip-rule="evenodd" d="M141.093 11.434C149.307 11.434 155.964 17.8621 155.964 25.7944C155.964 33.7252 149.307 40.1548 141.093 40.1548C132.879 40.1548 126.222 33.7252 126.222 25.7944C126.222 17.8621 132.879 11.434 141.093 11.434ZM141.093 17.7948C145.668 17.7948 149.377 21.3759 149.377 25.7944C149.377 30.2114 145.668 33.7926 141.093 33.7926C136.518 33.7926 132.81 30.2114 132.81 25.7944C132.81 21.3759 136.518 17.7948 141.093 17.7948Z" fill="black"/>
<path fill-rule="evenodd" clip-rule="evenodd" d="M46.6341 17.7948C49.9022 17.7948 52.7279 19.6232 54.0762 22.2778H39.1921C40.5404 19.6232 43.3661 17.7948 46.6341 17.7948ZM46.6341 11.434C54.8473 11.434 61.5058 17.8621 61.5058 25.7944C61.5058 26.407 61.4652 27.0114 61.3888 27.6038H38.5648C39.4124 31.1499 42.7038 33.7926 46.6341 33.7926C49.166 33.7926 51.4331 32.6954 52.9524 30.9667H60.5101C58.3601 36.3411 52.9591 40.1548 46.6337 40.1548C38.4205 40.1548 31.762 33.7252 31.762 25.7944C31.762 17.8621 38.4209 11.434 46.6341 11.434Z" fill="black"/>
<path fill-rule="evenodd" clip-rule="evenodd" d="M78.378 17.7948C81.6475 17.7948 84.4731 19.6232 85.82 22.2778H70.9359C72.2843 19.6232 75.1099 17.7948 78.378 17.7948ZM78.378 11.434C86.5926 11.434 93.2496 17.8621 93.2496 25.7944C93.2496 26.407 93.209 27.0114 93.1326 27.6038H70.3086C71.1576 31.1499 74.4477 33.7926 78.378 33.7926C80.9098 33.7926 83.1769 32.6954 84.6963 30.9667H92.2539C90.1039 36.3411 84.703 40.1548 78.3775 40.1548C70.1643 40.1548 63.5058 33.7252 63.5058 25.7944C63.5058 17.8621 70.1648 11.434 78.378 11.434Z" fill="black"/>
<path fill-rule="evenodd" clip-rule="evenodd" d="M174.05 11.434C174.736 11.434 175.41 11.4796 176.073 11.5673V18.0361C175.426 17.8801 174.748 17.7952 174.05 17.7952C169.475 17.7952 165.767 21.3763 165.767 25.7948L165.715 25.7745V40.1538H157.968V11.4344H165.715V13.8995C168.092 12.3433 170.961 11.434 174.05 11.434Z" fill="black"/>
<path d="M186.768 33.9891H179.022V40.1534H186.768V33.9891Z" fill="black"/>
</svg>
